<?xml version="1.0" encoding="utf-8"?>
<!-- Generator: Adobe Illustrator 16.0.0, SVG Export Plug-In . SVG Version: 6.00 Build 0)  -->
<!DOCTYPE svg PUBLIC "-//W3C//DTD SVG 1.1//EN" "http://www.w3.org/Graphics/SVG/1.1/DTD/svg11.dtd">
<svg version="1.1" id="Layer_1" xmlns="http://www.w3.org/2000/svg" xmlns:xlink="http://www.w3.org/1999/xlink" x="0px" y="0px"
	 width="568.289px" height="87.332px" viewBox="0 0 568.289 87.332" enable-background="new 0 0 568.289 87.332"
	 xml:space="preserve">
<g>
	<path d="M267.665,68.609c0.293,2.465,0.93,4.215,1.906,5.252c1.727,1.848,4.919,2.773,9.577,2.773c2.736,0,4.91-0.406,6.524-1.217
		c1.611-0.811,2.418-2.025,2.418-3.646c0-1.557-0.652-2.74-1.948-3.551c-1.3-0.809-6.133-2.203-14.499-4.182
		c-6.023-1.492-10.268-3.357-12.73-5.594c-2.465-2.203-3.696-5.381-3.696-9.531c0-4.894,1.925-9.1,5.774-12.619
		c3.851-3.518,9.268-5.276,16.253-5.276c6.626,0,12.029,1.321,16.204,3.964c4.174,2.643,6.571,7.205,7.189,13.689h-13.86
		c-0.195-1.783-0.698-3.193-1.512-4.232c-1.528-1.878-4.13-2.819-7.803-2.819c-3.022,0-5.177,0.471-6.46,1.409
		c-1.285,0.941-1.928,2.042-1.928,3.308c0,1.588,0.683,2.738,2.05,3.453c1.364,0.746,6.188,2.025,14.47,3.84
		c5.521,1.299,9.66,3.26,12.416,5.885c2.724,2.66,4.085,5.982,4.085,9.969c0,5.254-1.957,9.541-5.872,12.863
		c-3.915,3.324-9.965,4.984-18.15,4.984c-8.349,0-14.512-1.758-18.492-5.275s-5.969-8-5.969-13.447H267.665z"/>
	<path d="M354.521,79.048c-4.473,5.521-11.266,8.283-20.376,8.283s-15.901-2.762-20.376-8.283
		c-4.473-5.523-6.711-12.172-6.711-19.947c0-7.643,2.238-14.268,6.711-19.871c4.475-5.604,11.266-8.406,20.376-8.406
		s15.903,2.802,20.376,8.406c4.475,5.603,6.711,12.228,6.711,19.871C361.231,66.876,358.995,73.525,354.521,79.048z M343.433,71.388
		c2.172-2.881,3.26-6.977,3.26-12.287c0-5.309-1.088-9.395-3.26-12.26c-2.172-2.865-5.284-4.297-9.337-4.297
		c-4.052,0-7.173,1.433-9.36,4.297c-2.189,2.865-3.283,6.951-3.283,12.26c0,5.311,1.094,9.406,3.283,12.287
		c2.188,2.881,5.309,4.32,9.36,4.32C338.148,75.708,341.261,74.269,343.433,71.388z"/>
	<path d="M382.972,32.526v31.95c0,3.016,0.354,5.285,1.064,6.807c1.259,2.693,3.725,4.037,7.402,4.037
		c4.71,0,7.937-1.912,9.679-5.738c0.903-2.074,1.354-4.814,1.354-8.219V32.526h14.055v53.006h-13.471v-7.49
		c-0.13,0.164-0.453,0.65-0.971,1.461c-0.517,0.811-1.131,1.523-1.842,2.139c-2.166,1.945-4.26,3.275-6.28,3.988
		s-4.388,1.07-7.104,1.07c-7.824,0-13.092-2.822-15.809-8.463c-1.52-3.111-2.278-7.699-2.278-13.762v-31.95H382.972z"/>
	<path d="M457.45,31.287c0.178,0.016,0.576,0.041,1.191,0.072v14.199c-0.875-0.096-1.652-0.162-2.334-0.193
		c-0.681-0.031-1.232-0.049-1.654-0.049c-5.576,0-9.32,1.816-11.232,5.445c-1.07,2.043-1.605,5.188-1.605,9.436v25.336h-13.957
		V32.526h13.228v9.239c2.14-3.533,4.003-5.948,5.593-7.246c2.594-2.172,5.965-3.258,10.115-3.258
		C457.052,31.262,457.272,31.27,457.45,31.287z"/>
	<path d="M496.478,51.541c-0.26-1.979-0.926-3.762-1.998-5.35c-1.561-2.14-3.981-3.208-7.264-3.208
		c-4.682,0-7.883,2.318-9.604,6.953c-0.91,2.459-1.365,5.725-1.365,9.799c0,3.881,0.455,7.002,1.365,9.361
		c1.656,4.41,4.777,6.613,9.359,6.613c3.25,0,5.558-0.875,6.923-2.625c1.364-1.75,2.194-4.02,2.485-6.809h14.152
		c-0.326,4.215-1.851,8.203-4.576,11.963c-4.35,6.064-10.791,9.094-19.325,9.094s-14.815-2.529-18.839-7.586
		c-4.024-5.059-6.037-11.615-6.037-19.672c0-9.094,2.223-16.168,6.67-21.226c4.445-5.058,10.578-7.586,18.401-7.586
		c6.652,0,12.095,1.491,16.331,4.475c4.234,2.982,6.741,8.251,7.521,15.804H496.478z"/>
	<path d="M554.434,33.6c3.696,1.656,6.75,4.271,9.159,7.842c2.171,3.15,3.58,6.8,4.223,10.958c0.373,2.436,0.525,5.941,0.458,10.52
		h-38.607c0.216,5.318,2.063,9.045,5.543,11.186c2.117,1.328,4.663,1.994,7.643,1.994c3.157,0,5.722-0.811,7.695-2.432
		c1.075-0.877,2.027-2.092,2.853-3.648h14.15c-0.374,3.145-2.086,6.34-5.139,9.58c-4.748,5.156-11.396,7.732-19.943,7.732
		c-7.054,0-13.276-2.174-18.67-6.521c-5.393-4.348-8.088-11.422-8.088-21.221c0-9.182,2.434-16.224,7.302-21.124
		s11.187-7.351,18.955-7.351C546.579,31.115,550.735,31.943,554.434,33.6z M533.698,45.572c-1.958,2.02-3.188,4.754-3.691,8.205
		h23.877c-0.253-3.68-1.482-6.471-3.691-8.375c-2.209-1.905-4.95-2.858-8.221-2.858C538.414,42.544,535.655,43.554,533.698,45.572z"
		/>
</g>
<g>
	<path fill="#FFFFFF" stroke="#000000" stroke-width="1.4173" d="M49.797,3.03c2.772,1.371,5.121,3.386,7.049,6.047
		c1.594,2.193,2.422,4.176,3.191,6.888c0.639,2.247,0.921,4.038,1.016,6.333c0.096,2.289,0.071,8.778-1.733,12.75
		c-1.806,3.973-4.786,6.78-8.94,8.424c3.475,1.604,5.934,3.884,7.383,6.839c1.446,2.956,2.171,9.996,2.171,16.062v5.811
		c0,3.955,0.138,6.637,0.415,8.045c0.415,2.23,1.383,3.873,2.905,4.932v2.17h-17.37c-0.477-1.916-0.816-3.463-1.021-4.637
		c-0.408-2.426-0.63-4.912-0.664-7.455l-0.102-8.043c-0.065-5.52-0.895-11.728-2.489-13.568c-1.595-1.838-4.584-2.76-8.965-2.76
		H19.274v36.463H3.897V0.799h34.017C43.062,0.917,47.023,1.661,49.797,3.03z M19.274,15.829v20.717h14.935
		c3.363,0,5.885-0.47,7.568-1.41c2.977-1.643,4.464-4.892,4.464-9.746c0-5.244-1.44-6.235-4.318-8.035
		c-1.618-1.018-4.043-1.527-7.277-1.527H19.274z"/>
	<rect x="127.938" y="0.799" fill="#FFFFFF" stroke="#000000" stroke-width="1.4173" width="25.558" height="15.459"/>
	<rect x="127.938" y="36.208" fill="#FFFFFF" stroke="#000000" stroke-width="1.4173" width="25.558" height="15.458"/>
	<polygon fill="#FFFFFF" stroke="#000000" stroke-width="1.4173" points="113.053,16.122 113.053,0.799 72.809,0.799 72.809,87.332 
		113.053,87.332 113.053,71.775 88.186,71.775 88.186,51.666 113.053,51.666 113.053,51.214 113.053,36.208 113.053,36.184 
		88.186,36.184 88.186,16.122 	"/>
	<rect x="127.938" y="71.875" fill="#FFFFFF" stroke="#000000" stroke-width="1.4173" width="25.558" height="15.457"/>
	<rect x="168.626" y="0.799" fill="#FFFFFF" stroke="#000000" stroke-width="1.4173" width="25.558" height="15.459"/>
	<rect x="168.626" y="36.208" fill="#FFFFFF" stroke="#000000" stroke-width="1.4173" width="25.558" height="15.458"/>
	<rect x="168.626" y="71.875" fill="#FFFFFF" stroke="#000000" stroke-width="1.4173" width="25.558" height="15.457"/>
	<rect x="209.314" y="0.799" fill="#FFFFFF" stroke="#000000" stroke-width="1.4173" width="25.557" height="15.459"/>
	<rect x="209.314" y="36.208" fill="#FFFFFF" stroke="#000000" stroke-width="1.4173" width="25.557" height="15.458"/>
	<rect x="209.314" y="71.875" fill="#FFFFFF" stroke="#000000" stroke-width="1.4173" width="25.557" height="15.457"/>
</g>
</svg>
