<?xml version="1.0" encoding="utf-8"?>
<!-- Generator: Adobe Illustrator 16.0.0, SVG Export Plug-In . SVG Version: 6.00 Build 0)  -->
<!DOCTYPE svg PUBLIC "-//W3C//DTD SVG 1.1//EN" "http://www.w3.org/Graphics/SVG/1.1/DTD/svg11.dtd">
<svg version="1.1" id="Layer_1" xmlns="http://www.w3.org/2000/svg" xmlns:xlink="http://www.w3.org/1999/xlink" x="0px" y="0px"
	 width="568.289px" height="89.667px" viewBox="0 -1.5 568.289 89.667" enable-background="new 0 -1.5 568.289 89.667"
	 xml:space="preserve">
<g>
	<path d="M266.246,67.727c0.293,2.465,0.931,4.215,1.906,5.252c1.727,1.848,4.919,2.772,9.577,2.772c2.735,0,4.91-0.405,6.525-1.217
		c1.612-0.812,2.419-2.024,2.419-3.646c0-1.558-0.651-2.74-1.947-3.552c-1.303-0.809-6.136-2.202-14.501-4.182
		c-6.023-1.492-10.269-3.356-12.73-5.595c-2.465-2.202-3.696-5.381-3.696-9.53c0-4.892,1.926-9.098,5.774-12.617
		c3.851-3.518,9.268-5.276,16.253-5.276c6.626,0,12.032,1.321,16.207,3.964c4.174,2.643,6.571,7.205,7.189,13.687h-13.86
		c-0.195-1.782-0.698-3.19-1.513-4.229c-1.529-1.878-4.131-2.819-7.805-2.819c-3.021,0-5.177,0.471-6.46,1.409
		c-1.285,0.941-1.928,2.042-1.928,3.306c0,1.588,0.683,2.738,2.05,3.453c1.364,0.746,6.188,2.024,14.472,3.84
		c5.521,1.3,9.66,3.261,12.417,5.886c2.724,2.659,4.085,5.981,4.085,9.969c0,5.254-1.957,9.541-5.872,12.863
		c-3.915,3.323-9.966,4.983-18.153,4.983c-8.349,0-14.512-1.758-18.492-5.274c-3.979-3.518-5.969-8-5.969-13.447H266.246z"/>
	<path d="M353.105,78.165c-4.473,5.521-11.266,8.283-20.376,8.283s-15.901-2.763-20.376-8.283
		c-4.473-5.522-6.711-12.172-6.711-19.946c0-7.644,2.238-14.266,6.711-19.87c4.475-5.604,11.266-8.406,20.376-8.406
		s15.903,2.802,20.376,8.406c4.475,5.604,6.711,12.226,6.711,19.87C359.815,65.993,357.579,72.643,353.105,78.165z M342.017,70.506
		c2.172-2.882,3.26-6.978,3.26-12.287s-1.088-9.396-3.26-12.261c-2.172-2.863-5.284-4.295-9.337-4.295
		c-4.052,0-7.173,1.433-9.36,4.295c-2.188,2.865-3.283,6.951-3.283,12.261c0,5.311,1.095,9.405,3.283,12.287
		c2.188,2.881,5.31,4.319,9.36,4.319C336.732,74.825,339.845,73.387,342.017,70.506z"/>
	<path d="M381.556,31.645v31.949c0,3.016,0.354,5.284,1.063,6.807c1.26,2.693,3.726,4.037,7.402,4.037
		c4.71,0,7.938-1.912,9.679-5.738c0.903-2.074,1.354-4.814,1.354-8.219V31.645h14.055v53.004h-13.471v-7.49
		c-0.13,0.164-0.453,0.649-0.972,1.461c-0.517,0.812-1.131,1.522-1.842,2.14c-2.166,1.944-4.26,3.274-6.279,3.987
		c-2.021,0.713-4.389,1.07-7.104,1.07c-7.824,0-13.092-2.822-15.809-8.464c-1.521-3.11-2.278-7.698-2.278-13.762V31.644
		L381.556,31.645L381.556,31.645z"/>
	<path d="M456.034,30.406c0.179,0.016,0.576,0.041,1.191,0.072v14.2c-0.875-0.097-1.652-0.162-2.334-0.193
		c-0.681-0.031-1.232-0.049-1.654-0.049c-5.576,0-9.32,1.813-11.231,5.442c-1.07,2.044-1.605,5.188-1.605,9.437V84.65h-13.957
		V31.645h13.229v9.239c2.14-3.533,4.003-5.948,5.593-7.246c2.594-2.172,5.965-3.258,10.115-3.258
		C455.636,30.381,455.856,30.389,456.034,30.406z"/>
	<path d="M495.062,50.658c-0.26-1.979-0.926-3.762-1.998-5.35c-1.561-2.139-3.981-3.207-7.264-3.207
		c-4.683,0-7.884,2.318-9.604,6.951c-0.91,2.459-1.365,5.726-1.365,9.799c0,3.882,0.455,7.002,1.365,9.361
		c1.656,4.41,4.777,6.613,9.359,6.613c3.25,0,5.558-0.875,6.923-2.625c1.364-1.75,2.194-4.02,2.485-6.809h14.151
		c-0.326,4.215-1.851,8.203-4.576,11.963c-4.35,6.063-10.791,9.094-19.324,9.094c-8.534,0-14.815-2.529-18.839-7.586
		c-4.024-5.059-6.037-11.615-6.037-19.672c0-9.094,2.223-16.166,6.67-21.224c4.444-5.058,10.578-7.586,18.4-7.586
		c6.652,0,12.096,1.491,16.331,4.475c4.234,2.982,6.741,8.251,7.521,15.802H495.062z"/>
	<path d="M553.018,32.719c3.696,1.656,6.75,4.271,9.159,7.842c2.171,3.15,3.58,6.798,4.223,10.957
		c0.373,2.436,0.525,5.94,0.458,10.52h-38.606c0.216,5.318,2.062,9.045,5.543,11.186c2.116,1.328,4.663,1.994,7.643,1.994
		c3.157,0,5.722-0.811,7.695-2.432c1.075-0.877,2.026-2.092,2.853-3.648h14.15c-0.374,3.146-2.086,6.34-5.139,9.58
		c-4.748,5.156-11.396,7.732-19.943,7.732c-7.054,0-13.276-2.174-18.67-6.521s-8.088-11.422-8.088-21.221
		c0-9.182,2.434-16.222,7.302-21.122c4.868-4.9,11.187-7.351,18.955-7.351C545.163,30.234,549.319,31.062,553.018,32.719z
		 M532.282,44.691c-1.958,2.018-3.188,4.752-3.69,8.203h23.877c-0.253-3.68-1.482-6.471-3.691-8.373
		c-2.209-1.905-4.95-2.858-8.221-2.858C536.998,41.663,534.239,42.673,532.282,44.691z"/>
</g>
<g>
	<path fill="#FFFFFF" stroke="#000000" stroke-width="2.8346" d="M48.378,2.149c2.772,1.371,5.121,3.386,7.05,6.047
		c1.594,2.193,2.422,4.176,3.19,6.888c0.639,2.247,0.921,4.038,1.017,6.333c0.096,2.289,0.07,8.778-1.733,12.75
		c-1.806,3.973-4.786,6.78-8.94,8.424c3.476,1.604,5.935,3.881,7.384,6.836c1.445,2.957,2.171,9.996,2.171,16.062v5.811
		c0,3.955,0.138,6.637,0.415,8.045c0.415,2.23,1.383,3.873,2.904,4.933v2.17h-17.37c-0.477-1.916-0.815-3.463-1.021-4.638
		c-0.408-2.426-0.63-4.911-0.664-7.454l-0.102-8.044c-0.065-5.52-0.896-11.728-2.489-13.567c-1.595-1.838-4.584-2.76-8.965-2.76
		H17.856v36.463H2.479v-86.53h34.017C41.644,0.036,45.605,0.78,48.378,2.149z M17.856,14.948v20.717H32.79
		c3.363,0,5.886-0.47,7.568-1.41c2.977-1.643,4.464-4.892,4.464-9.746c0-5.244-1.44-6.235-4.318-8.035
		c-1.617-1.018-4.043-1.527-7.276-1.527L17.856,14.948L17.856,14.948z"/>
	<rect x="126.52" y="-0.082" fill="#FFFFFF" stroke="#000000" stroke-width="2.8346" width="25.558" height="15.459"/>
	<rect x="126.52" y="35.327" fill="#FFFFFF" stroke="#000000" stroke-width="2.8346" width="25.558" height="15.456"/>
	<polygon fill="#FFFFFF" stroke="#000000" stroke-width="2.8346" points="111.635,15.241 111.635,-0.082 71.391,-0.082 
		71.391,86.449 111.635,86.449 111.635,70.893 86.768,70.893 86.768,50.783 111.635,50.783 111.635,50.331 111.635,35.327 
		111.635,35.303 86.768,35.303 86.768,15.241 	"/>
	<rect x="126.52" y="70.992" fill="#FFFFFF" stroke="#000000" stroke-width="2.8346" width="25.558" height="15.457"/>
	<rect x="167.207" y="-0.082" fill="#FFFFFF" stroke="#000000" stroke-width="2.8346" width="25.559" height="15.459"/>
	<rect x="167.207" y="35.327" fill="#FFFFFF" stroke="#000000" stroke-width="2.8346" width="25.559" height="15.456"/>
	<rect x="167.207" y="70.992" fill="#FFFFFF" stroke="#000000" stroke-width="2.8346" width="25.559" height="15.457"/>
	<rect x="207.896" y="-0.082" fill="#FFFFFF" stroke="#000000" stroke-width="2.8346" width="25.557" height="15.459"/>
	<rect x="207.896" y="35.327" fill="#FFFFFF" stroke="#000000" stroke-width="2.8346" width="25.557" height="15.456"/>
	<rect x="207.896" y="70.992" fill="#FFFFFF" stroke="#000000" stroke-width="2.8346" width="25.557" height="15.457"/>
</g>
</svg>
